<svg xmlns="http://www.w3.org/2000/svg" xmlns:xlink="http://www.w3.org/1999/xlink" viewBox="0 0 401.6 125.3"><path fill="#ec6726" d="M.6 1.7h19.7v115.4H.6z"/><defs><path id="a" d="M.6.5H401v124.3H.6z"/></defs><clipPath id="b"><use xlink:href="#a" overflow="visible"/></clipPath><path d="M73.2 116.4c0 .1 0 .2-.1.3-.1.1-.1.1-.3.2-.1.1-.3.1-.5.1h-1.8c-.2 0-.4-.1-.6-.1-.1-.1-.2-.1-.3-.2-.1-.1-.1-.2-.1-.3v-11.8c0-.8-.1-1.6-.2-2.2-.1-.7-.4-1.3-.7-1.7-.3-.5-.7-.9-1.2-1.1-.5-.3-1.1-.4-1.7-.4-.8 0-1.6.3-2.5.9-.8.6-1.7 1.6-2.7 2.8v13.6c0 .1 0 .2-.1.3-.1.1-.1.1-.3.2-.1.1-.3.1-.5.1h-1.8c-.2 0-.4-.1-.6-.1-.1-.1-.2-.1-.3-.2-.1-.1-.1-.2-.1-.3v-11.8c0-.8-.1-1.6-.2-2.2-.2-.7-.4-1.3-.7-1.7-.3-.5-.7-.9-1.2-1.1-.5-.3-1.1-.4-1.7-.4-.8 0-1.6.3-2.5.9-.8.6-1.7 1.6-2.7 2.8v13.6c0 .1 0 .2-.1.3-.1.1-.2.1-.3.2-.1.1-.3.1-.5.1h-1.8c-.2 0-.4-.1-.6-.1-.1-.1-.2-.1-.3-.2 0-.1-.1-.2-.1-.3V97c0-.1 0-.2.1-.3 0-.1.1-.2.3-.2.1-.1.3-.1.5-.1h1.6c.2 0 .4.1.5.1.1.1.2.1.2.2.1.1.1.2.1.3v2.6c1.1-1.2 2.2-2.1 3.2-2.7 1-.6 2.1-.9 3.1-.9.8 0 1.5.1 2.2.3.6.2 1.2.5 1.7.8.5.3.9.7 1.3 1.2.3.5.6 1 .9 1.6.6-.7 1.3-1.3 1.8-1.8.6-.5 1.1-.9 1.7-1.2.5-.3 1.1-.5 1.6-.7.5-.1 1-.2 1.5-.2 1.3 0 2.3.2 3.2.7.9.4 1.5 1 2.1 1.8.5.7.9 1.6 1.1 2.6.2 1 .3 2 .3 3.1v12.2zm24.5-9.9c0 1.6-.2 3-.6 4.4-.4 1.3-1 2.5-1.9 3.4-.8 1-1.9 1.7-3.1 2.3-1.2.5-2.7.8-4.3.8-1.6 0-3-.2-4.2-.7-1.2-.5-2.2-1.2-3-2.1-.8-.9-1.4-2-1.8-3.3-.4-1.3-.6-2.8-.6-4.4 0-1.6.2-3 .6-4.4.4-1.3 1-2.5 1.9-3.4.8-1 1.9-1.7 3.1-2.2 1.2-.5 2.7-.8 4.3-.8 1.6 0 3 .2 4.2.7 1.2.5 2.2 1.2 3 2.1.8.9 1.4 2 1.8 3.3.4 1.2.6 2.7.6 4.3m-3.7.2c0-1.1-.1-2-.3-3-.2-.9-.5-1.8-1-2.5s-1.1-1.3-1.8-1.7c-.8-.4-1.7-.6-2.9-.6-1.1 0-2 .2-2.7.6-.8.4-1.4.9-1.9 1.6-.5.7-.9 1.5-1.1 2.4-.2.9-.4 2-.4 3.1s.1 2.1.3 3c.2.9.5 1.8 1 2.5s1.1 1.2 1.8 1.7c.8.4 1.7.6 2.9.6 1 0 2-.2 2.7-.6.8-.4 1.4-.9 1.9-1.6.5-.7.9-1.5 1.1-2.4.3-.9.4-2 .4-3.1m20.3-8.4v.8c0 .2 0 .4-.1.5 0 .1-.1.2-.2.3-.1.1-.2.1-.3.1-.1 0-.3 0-.4-.1-.2-.1-.4-.1-.6-.2-.2-.1-.4-.1-.7-.2-.3-.1-.5-.1-.8-.1-.4 0-.7.1-1.1.2-.3.1-.7.4-1.1.7-.4.3-.8.8-1.2 1.3-.4.5-.9 1.2-1.4 2v12.8c0 .1 0 .2-.1.3-.1.1-.1.1-.3.2-.1.1-.3.1-.5.1h-1.8c-.2 0-.4-.1-.6-.1-.1-.1-.2-.1-.3-.2-.1-.1-.1-.2-.1-.3V97c0-.1 0-.2.1-.3 0-.1.1-.2.3-.2.1-.1.3-.1.5-.1h1.6c.2 0 .4.1.5.1.1.1.2.1.3.2 0 .1.1.2.1.3v2.8c.5-.8 1-1.4 1.5-1.9s.9-.9 1.3-1.2c.4-.3.8-.5 1.2-.6.4-.1.8-.2 1.2-.2h.6c.2 0 .5.1.7.1.3.1.5.1.7.2.2.1.4.1.4.2l.2.2c0 .1 0 .1.1.3v.4c.3.4.3.6.3 1m20.1 7.6c0 .6-.1 1-.4 1.2-.3.2-.6.4-1 .4h-12.8c0 1.1.1 2.1.3 2.9.2.9.6 1.6 1.1 2.2.5.6 1.2 1.1 2 1.4.8.3 1.8.5 3 .5.9 0 1.7-.1 2.5-.2.7-.2 1.4-.3 1.9-.5s1-.4 1.3-.5c.3-.1.6-.2.8-.2.1 0 .2 0 .3.1l.2.2c0 .1.1.2.1.4v1.2c0 .1 0 .3-.1.4 0 .1-.1.2-.1.3-.1.1-.1.2-.2.2-.1.1-.3.2-.7.4-.4.2-.9.4-1.5.5-.6.2-1.3.3-2.1.5-.8.1-1.7.2-2.6.2-1.6 0-3-.2-4.2-.7-1.2-.4-2.2-1.1-3-2-.8-.9-1.4-2-1.9-3.3-.4-1.3-.6-2.9-.6-4.6 0-1.7.2-3.2.7-4.5.4-1.3 1.1-2.5 1.9-3.4.8-.9 1.8-1.6 2.9-2.1 1.1-.5 2.4-.7 3.9-.7s2.8.2 3.9.7c1.1.5 2 1.1 2.6 2 .7.8 1.2 1.8 1.5 2.9.3 1.1.5 2.3.5 3.6v.5zm-3.6-1.1c0-1.9-.4-3.3-1.3-4.4-.9-1.1-2.2-1.6-3.9-1.6-.9 0-1.7.2-2.3.5-.7.3-1.2.8-1.7 1.3-.4.5-.8 1.2-1 1.9-.2.7-.4 1.5-.4 2.3h10.6zm29.1 10.2c0 .4 0 .8-.1 1-.1.3-.1.4-.3.5-.1.1-.3.2-.5.3-.2.1-.5.2-.8.3-.3.1-.6.1-.9.2-.3 0-.7.1-1 .1-1 0-1.9-.1-2.6-.4-.7-.3-1.3-.7-1.8-1.2s-.8-1.2-1-2.1c-.2-.8-.3-1.8-.3-2.9V99.4h-2.7c-.2 0-.4-.1-.5-.3-.1-.2-.2-.6-.2-1.1 0-.3 0-.5.1-.7 0-.2.1-.3.1-.5.1-.1.1-.2.2-.3.1-.1.2-.1.3-.1h2.7v-4.6c0-.1 0-.2.1-.3.1-.1.1-.2.3-.2.1-.1.3-.1.6-.1h1.8c.2 0 .4.1.5.1.1.1.2.1.3.2s.1.2.1.3v4.6h5c.1 0 .2 0 .3.1.1 0 .2.1.2.3.1.1.1.3.1.5v.7c0 .5-.1.9-.2 1.1-.1.2-.3.3-.5.3h-5v10.8c0 1.3.2 2.3.6 3 .4.7 1.1 1 2.1 1 .3 0 .6 0 .9-.1.3-.1.5-.1.7-.2.2-.1.4-.1.5-.2.2-.1.3-.1.4-.1h.2c.1 0 .1.1.2.2 0 .1.1.2.1.4v.8m21.4 1.4c0 .1 0 .2-.1.3-.1.1-.1.1-.3.2-.1.1-.3.1-.5.1h-1.8c-.2 0-.4-.1-.5-.1-.1-.1-.2-.1-.3-.2-.1-.1-.1-.2-.1-.3V105c0-1.1-.1-2-.3-2.7-.2-.7-.4-1.3-.7-1.7-.3-.5-.8-.9-1.3-1.1-.5-.3-1.1-.4-1.8-.4-.9 0-1.8.3-2.7.9-.9.6-1.8 1.6-2.8 2.8v13.6c0 .1 0 .2-.1.3-.1.1-.1.1-.3.2-.1.1-.3.1-.5.1h-1.8c-.2 0-.4-.1-.6-.1-.1-.1-.2-.1-.3-.2-.1-.1-.1-.2-.1-.3V87.6c0-.1 0-.2.1-.3 0-.1.1-.2.3-.2.1-.1.3-.1.6-.1h1.8c.2 0 .4.1.5.1.1.1.2.1.3.2.1.1.1.2.1.3v11.6c1-1.1 2.1-1.9 3.1-2.4s2.1-.8 3.1-.8c1.3 0 2.4.2 3.3.7.9.4 1.6 1 2.1 1.8.5.7.9 1.6 1.2 2.6.2 1 .4 2.2.4 3.6v11.7zm21.1 0c0 .2-.1.3-.2.4-.1.1-.3.2-.5.2s-.5.1-.9.1-.7 0-.9-.1c-.2 0-.4-.1-.5-.2-.1-.1-.1-.2-.1-.4v-1.9c-.8.9-1.8 1.6-2.8 2.1-1 .5-2.2.8-3.3.8-1 0-1.9-.1-2.8-.4-.8-.3-1.5-.7-2.1-1.2-.6-.5-1-1.1-1.4-1.9-.3-.7-.5-1.6-.5-2.5 0-1.1.2-2 .7-2.8.4-.8 1.1-1.5 1.9-2 .8-.5 1.9-.9 3.1-1.2 1.2-.3 2.6-.4 4.1-.4h2.7v-1.5c0-.7-.1-1.4-.2-2-.2-.6-.4-1.1-.8-1.4-.4-.4-.8-.7-1.4-.9-.6-.2-1.2-.3-2.1-.3-.9 0-1.7.1-2.4.3-.7.2-1.3.4-1.8.7-.5.3-1 .5-1.3.7-.4.2-.6.3-.8.3-.1 0-.2 0-.3-.1-.1-.1-.2-.1-.2-.3-.1-.1-.1-.3-.1-.4v-.6c0-.4 0-.6.1-.8 0-.2.2-.4.4-.6.2-.2.5-.4 1-.7.5-.2 1-.5 1.6-.7.6-.2 1.3-.4 2-.5.7-.1 1.5-.2 2.2-.2 1.4 0 2.6.2 3.6.5s1.8.8 2.4 1.4c.6.6 1 1.4 1.3 2.3.3.9.4 2 .4 3.2v13zm-3.5-8.8h-3c-1 0-1.8.1-2.5.3-.7.2-1.3.4-1.8.7-.5.3-.8.7-1 1.2-.2.5-.3 1-.3 1.6 0 1 .3 1.8 1 2.4.6.6 1.5.9 2.7.9.9 0 1.8-.2 2.6-.7.8-.5 1.6-1.2 2.5-2.2v-4.2zm26.8 8.8c0 .1 0 .2-.1.3-.1.1-.1.1-.3.2-.1.1-.3.1-.5.1H223c-.2 0-.4-.1-.5-.1-.1-.1-.2-.1-.3-.2-.1-.1-.1-.2-.1-.3V105c0-1.1-.1-2-.3-2.7-.2-.7-.4-1.3-.8-1.7-.3-.5-.8-.9-1.3-1.1-.5-.3-1.1-.4-1.8-.4-.9 0-1.8.3-2.7.9-.9.6-1.8 1.6-2.8 2.8v13.6c0 .1 0 .2-.1.3-.1.1-.2.1-.3.2-.1.1-.3.1-.5.1h-1.8c-.2 0-.4-.1-.5-.1-.1-.1-.2-.1-.3-.2 0-.1-.1-.2-.1-.3V97c0-.1 0-.2.1-.3 0-.1.1-.2.2-.2.1-.1.3-.1.5-.1h1.6c.2 0 .4.1.5.1.1.1.2.1.2.2.1.1.1.2.1.3v2.6c1.1-1.2 2.2-2.1 3.3-2.7 1.1-.6 2.2-.9 3.3-.9 1.3 0 2.4.2 3.3.7.9.4 1.6 1 2.1 1.8.5.7.9 1.6 1.2 2.6.2 1 .4 2.2.4 3.6v11.7zm33-10.5c0 .6-.1 1-.4 1.2-.3.2-.6.4-1 .4h-12.8c0 1.1.1 2.1.3 2.9.2.9.6 1.6 1.1 2.2.5.6 1.2 1.1 2 1.4.8.3 1.8.5 3 .5.9 0 1.8-.1 2.5-.2.7-.2 1.3-.3 1.9-.5.5-.2 1-.4 1.3-.5.3-.1.6-.2.8-.2.1 0 .2 0 .3.1l.2.2c0 .1.1.2.1.4v1.2c0 .1 0 .3-.1.4 0 .1-.1.2-.1.3-.1.1-.1.2-.2.2-.1.1-.3.2-.7.4-.4.2-.9.4-1.5.5-.6.2-1.3.3-2.1.5-.8.1-1.7.2-2.6.2-1.6 0-3-.2-4.2-.7-1.2-.4-2.2-1.1-3-2-.8-.9-1.4-2-1.9-3.3-.4-1.3-.6-2.9-.6-4.6 0-1.7.2-3.2.6-4.5.4-1.3 1.1-2.5 1.9-3.4.8-.9 1.8-1.6 2.9-2.1 1.2-.5 2.4-.7 3.9-.7s2.8.2 3.9.7c1.1.5 2 1.1 2.6 2 .7.8 1.2 1.8 1.5 2.9.3 1.1.5 2.3.5 3.6v.5zm-3.5-1.1c0-1.9-.4-3.3-1.3-4.4-.9-1.1-2.2-1.6-3.9-1.6-.9 0-1.7.2-2.3.5-.7.3-1.2.8-1.7 1.3-.4.5-.8 1.2-1 1.9-.2.7-.4 1.5-.4 2.3h10.6zm23 11.2c.1.2.2.4.2.5 0 .1-.1.3-.2.3-.1.1-.3.1-.6.2-.3 0-.6.1-1.1.1h-1c-.3 0-.5-.1-.6-.1-.2 0-.3-.1-.4-.2-.1-.1-.1-.2-.2-.3l-4.7-7.7-4.6 7.7c-.1.1-.1.2-.2.3-.1.1-.2.1-.3.2-.2 0-.3.1-.6.1h-1c-.4 0-.8 0-1-.1-.3 0-.5-.1-.6-.2-.1-.1-.2-.2-.2-.3 0-.1.1-.3.2-.5l6-9.5-5.7-9.1c-.1-.2-.2-.4-.2-.5 0-.1.1-.3.2-.3.1-.1.3-.2.6-.2h2.1c.3 0 .4.1.6.1.2 0 .3.1.3.2.1.1.1.2.2.3l4.4 7.2 4.5-7.2c.1-.1.1-.2.2-.2.1-.1.2-.1.3-.2.1 0 .3-.1.5-.1h1.9c.3 0 .5.1.6.2.1.1.2.2.2.3 0 .1-.1.3-.2.5l-5.7 9 6.1 9.5zm22.3-9.6c0 1.7-.2 3.2-.5 4.6-.4 1.4-.9 2.5-1.6 3.4-.7.9-1.6 1.7-2.6 2.2-1.1.5-2.3.8-3.6.8-.6 0-1.1-.1-1.6-.2s-1-.3-1.4-.5c-.5-.2-.9-.5-1.4-.9-.5-.4-1-.8-1.5-1.3v9.7c0 .1 0 .2-.1.3-.1.1-.1.2-.3.2-.1.1-.3.1-.5.1h-1.8c-.2 0-.4-.1-.6-.1-.1-.1-.2-.1-.3-.2 0-.1-.1-.2-.1-.3V97c0-.1 0-.2.1-.3 0-.1.1-.1.3-.2.1-.1.3-.1.5-.1h1.4c.2 0 .4.1.5.1.1.1.2.1.3.2.1.1.1.2.1.3v2.6c.6-.6 1.2-1.1 1.7-1.6s1.1-.8 1.6-1.1c.5-.3 1.1-.5 1.7-.7.6-.2 1.2-.2 1.8-.2 1.4 0 2.6.3 3.6.8s1.8 1.3 2.4 2.2c.6 1 1.1 2.1 1.4 3.3.4 1.4.5 2.7.5 4.1m-3.7.4c0-1-.1-2-.2-2.9-.2-.9-.4-1.8-.8-2.5s-.9-1.3-1.5-1.7c-.6-.4-1.4-.7-2.3-.7-.5 0-.9.1-1.4.2-.5.1-.9.4-1.4.6-.5.3-.9.7-1.4 1.2-.5.5-1.1 1.1-1.6 1.8v7.7c1 1.2 1.9 2.1 2.8 2.7.9.6 1.8 1 2.8 1 .9 0 1.7-.2 2.3-.7.6-.4 1.2-1 1.6-1.7.4-.7.7-1.5.9-2.4.1-.8.2-1.7.2-2.6m25.6-.9c0 .6-.1 1-.4 1.2-.3.2-.6.4-1 .4h-12.8c0 1.1.1 2.1.3 2.9.2.9.6 1.6 1.1 2.2.5.6 1.2 1.1 2 1.4.8.3 1.8.5 3 .5.9 0 1.8-.1 2.5-.2.7-.2 1.4-.3 1.9-.5s1-.4 1.3-.5c.3-.1.6-.2.8-.2.1 0 .2 0 .3.1l.2.2c0 .1.1.2.1.4v1.6c0 .1-.1.2-.1.3-.1.1-.1.2-.2.2-.1.1-.3.2-.7.4-.4.2-.9.4-1.5.5-.6.2-1.3.3-2.2.5-.8.1-1.7.2-2.6.2-1.6 0-3-.2-4.2-.7-1.2-.4-2.2-1.1-3-2-.8-.9-1.4-2-1.9-3.3-.4-1.3-.6-2.9-.6-4.6 0-1.7.2-3.2.6-4.5.4-1.3 1.1-2.5 1.9-3.4.8-.9 1.8-1.6 2.9-2.1 1.2-.5 2.4-.7 3.9-.7s2.8.2 3.9.7c1.1.5 2 1.1 2.6 2 .7.8 1.2 1.8 1.5 2.9.3 1.1.5 2.3.5 3.6v.5zm-3.6-1.1c0-1.9-.4-3.3-1.3-4.4-.9-1.1-2.2-1.6-3.9-1.6-.9 0-1.7.2-2.3.5-.7.3-1.2.8-1.7 1.3-.4.5-.8 1.2-1 1.9-.3.7-.4 1.5-.4 2.3h10.6zm23 8.7v.6c0 .2 0 .3-.1.5 0 .1-.1.2-.1.3-.1.1-.2.2-.3.4-.2.2-.5.4-.9.7-.4.3-.9.5-1.5.7-.5.2-1.1.4-1.8.5-.6.1-1.3.2-2 .2-1.4 0-2.6-.2-3.7-.7-1.1-.5-2-1.1-2.7-2-.7-.9-1.3-2-1.7-3.3-.4-1.3-.6-2.8-.6-4.5 0-1.9.2-3.6.7-4.9.5-1.4 1.1-2.5 1.9-3.4.8-.9 1.8-1.5 2.9-2 1.1-.4 2.3-.6 3.6-.6.6 0 1.2.1 1.8.2.6.1 1.1.3 1.6.5s.9.4 1.3.6c.4.2.7.5.8.6l.4.4c.1.1.1.2.2.4 0 .1.1.3.1.5v.6c0 .6-.1 1-.2 1.2-.1.2-.3.3-.5.3s-.5-.1-.7-.4c-.3-.2-.6-.5-1.1-.8-.4-.3-1-.5-1.6-.8-.6-.2-1.3-.4-2.2-.4-1.7 0-3 .7-3.9 2-.9 1.3-1.4 3.2-1.4 5.7 0 1.2.1 2.3.4 3.3.2.9.6 1.7 1 2.4.5.6 1 1.1 1.7 1.4.7.3 1.4.5 2.3.5.8 0 1.5-.1 2.2-.4.6-.3 1.2-.5 1.6-.9.5-.3.8-.6 1.1-.8.3-.2.5-.4.7-.4.1 0 .2 0 .3.1.1.1.1.2.2.3 0 .1.1.3.1.5.1.3.1.6.1.9m14.8 1.5c0 .4 0 .8-.1 1-.1.3-.1.4-.3.5-.1.1-.3.2-.5.3-.2.1-.5.2-.8.3-.3.1-.6.1-.9.2-.3 0-.7.1-1 .1-1 0-1.9-.1-2.6-.4-.7-.3-1.3-.7-1.8-1.2s-.8-1.2-1-2.1c-.2-.8-.3-1.8-.3-2.9V99.4h-2.7c-.2 0-.4-.1-.5-.3-.1-.2-.2-.6-.2-1.1 0-.3 0-.5.1-.7 0-.2.1-.3.1-.5.1-.1.1-.2.2-.3.1-.1.2-.1.3-.1h2.7v-4.6c0-.1 0-.2.1-.3.1-.1.1-.2.3-.2.1-.1.3-.1.6-.1h1.8c.2 0 .4.1.5.1.1.1.2.1.3.2.1.1.1.2.1.3v4.6h5c.1 0 .2 0 .3.1.1 0 .2.1.2.3.1.1.1.3.1.5v.7c0 .5-.1.9-.2 1.1-.1.2-.3.3-.5.3h-5v10.8c0 1.3.2 2.3.6 3 .4.7 1.1 1 2.1 1 .3 0 .6 0 .9-.1.3-.1.5-.1.7-.2.2-.1.4-.1.5-.2.1-.1.3-.1.4-.1h.2c.1 0 .1.1.1.2s.1.2.1.4c.1.3.1.5.1.8m20.8-9.1c0 .6-.1 1-.4 1.2-.3.2-.6.4-1 .4h-12.8c0 1.1.1 2.1.3 2.9.2.9.6 1.6 1.1 2.2.5.6 1.2 1.1 2 1.4.8.3 1.8.5 3 .5.9 0 1.7-.1 2.5-.2.7-.2 1.3-.3 1.9-.5.5-.2 1-.4 1.3-.5.3-.1.6-.2.8-.2.1 0 .2 0 .3.1l.2.2c0 .1.1.2.1.4v1.2c0 .1 0 .3-.1.4 0 .1-.1.2-.1.3-.1.1-.1.2-.2.2-.1.1-.3.2-.7.4-.4.2-.9.4-1.5.5-.6.2-1.3.3-2.1.5-.8.1-1.7.2-2.6.2-1.6 0-3-.2-4.2-.7-1.2-.4-2.2-1.1-3-2-.8-.9-1.4-2-1.9-3.3-.4-1.3-.6-2.9-.6-4.6 0-1.7.2-3.2.6-4.5.4-1.3 1.1-2.5 1.9-3.4.8-.9 1.8-1.6 2.9-2.1 1.1-.5 2.4-.7 3.9-.7s2.8.2 3.9.7c1.1.5 1.9 1.1 2.6 2 .7.8 1.2 1.8 1.5 2.9.3 1.1.5 2.3.5 3.6v.5zm-3.6-1.1c0-1.9-.4-3.3-1.2-4.4-.9-1.1-2.2-1.6-3.9-1.6-.9 0-1.7.2-2.3.5-.7.3-1.2.8-1.7 1.3-.4.5-.8 1.2-1 1.9-.2.7-.4 1.5-.4 2.3h10.5zm25.7 11.6c0 .1 0 .2-.1.3 0 .1-.1.2-.3.2-.1.1-.3.1-.5.1h-1.5c-.2 0-.4-.1-.5-.1-.1-.1-.2-.1-.3-.2-.1-.1-.1-.2-.1-.3v-2.6c-1 1.1-2.1 2-3.2 2.6-1.1.6-2.3.9-3.6.9-1.4 0-2.6-.3-3.6-.8-1-.6-1.8-1.3-2.5-2.2-.6-.9-1.1-2.1-1.4-3.3-.3-1.3-.4-2.6-.4-4 0-1.7.2-3.2.5-4.5.4-1.3.9-2.5 1.6-3.4.7-.9 1.6-1.7 2.6-2.2 1-.5 2.2-.8 3.6-.8 1.1 0 2.2.2 3.1.7.9.5 1.9 1.2 2.8 2.2V87.7c0-.1 0-.2.1-.3 0-.1.1-.2.3-.2.1 0 .3-.1.6-.1.2 0 .5-.1.8-.1.4 0 .7 0 .9.1.2 0 .4.1.5.1.1.1.2.1.3.2.1.1.1.2.1.3v28.7zm-3.6-13.6c-1-1.2-1.9-2.1-2.8-2.7-.9-.6-1.8-.9-2.8-.9-.9 0-1.7.2-2.3.7-.6.4-1.2 1-1.5 1.7-.4.7-.7 1.5-.9 2.4-.2.9-.3 1.8-.3 2.7 0 1 .1 1.9.2 2.9.2.9.4 1.8.8 2.5s.9 1.3 1.5 1.8c.6.4 1.4.7 2.3.7.5 0 .9-.1 1.4-.2.4-.1.9-.3 1.4-.6.5-.3.9-.7 1.4-1.2.5-.5 1-1.1 1.6-1.8v-8z" clip-path="url(#b)" fill="#575756"/><path d="M361.9 59.8l.2.1c1.5.7 3.3 1.4 5.3 2 2 .6 4.4.9 7.1.9 1.8 0 3.4-.2 4.8-.6 1.4-.4 2.6-1 3.6-1.8s1.7-1.7 2.3-2.9c.5-1.1.8-2.4.8-3.8 0-1.6-.4-3-1.3-4.2-.9-1.2-2-2.2-3.5-3.1-1.4-.9-3.1-1.8-4.9-2.5-1.8-.8-3.7-1.6-5.6-2.5-1.9-.9-3.8-1.9-5.6-3-1.8-1.1-3.4-2.5-4.9-4-1.4-1.6-2.6-3.4-3.5-5.6-.9-2.1-1.3-4.7-1.3-7.7 0-3.4.6-6.4 1.9-9.1 1.3-2.6 3-4.8 5.1-6.5 2.2-1.7 4.7-3 7.6-3.9 2.9-.9 6-1.3 9.3-1.3 1.7 0 3.4.1 5.1.4 1.7.2 3.3.6 4.8 1 1.5.5 2.8.9 3.9 1.5.8.4 1.8.8 2.5 1.2 1 .6 1.5 1.9.9 2.9l-3.2 6.2c-.6 1-1.9 1.5-2.9.9l-.7-.4c-1.3-.6-2.8-1.2-4.5-1.6-1.7-.5-3.6-.8-5.6-.8-1.6 0-3 .2-4.2.6-1.2.4-2.2.9-2.9 1.6-.8.7-1.4 1.5-1.8 2.5-.4 1-.6 2-.6 3 0 1.6.4 3 1.3 4.1.9 1.2 2 2.2 3.5 3.1 1.5.9 3.1 1.7 5 2.5 1.8.8 3.7 1.6 5.6 2.5 1.9.9 3.8 1.9 5.7 3 1.8 1.1 3.5 2.5 4.9 4 1.4 1.6 2.6 3.4 3.5 5.5.9 2.1 1.3 4.6 1.3 7.5 0 3.8-.7 7.1-2.1 9.9-1.4 2.8-3.3 5.2-5.7 7.1-2.4 1.9-5.2 3.3-8.4 4.3s-6.7 1.4-10.3 1.4c-2.5 0-4.8-.2-6.9-.6-2.1-.4-4-.9-5.6-1.5-1.6-.6-3-1.2-4.1-1.8-.4-.3-.8-.5-1.2-.7l-.1-.1c-1.1-.6-1.5-1.9-.9-3l3.3-6.2c.6-.6 1.9-1.1 3-.5m-184.1-1.2v11.6c0 2-1.6 3.6-3.6 3.6h-7.3c-2 0-3.6-1.6-3.6-3.6V5c0-2 1.6-3.6 3.6-3.6h7.3c2 0 3.6 1.6 3.6 3.6v30.8c.1-.1.1-.2.2-.3l20.7-30.2c1.4-2.1 4.3-3.8 6.4-3.8h7.8c2.1 0 2.7 1.7 1.3 3.8l-20.7 30.2c-.5.8-1.3 1.5-2.1 2.1.8.6 1.6 1.3 2.1 2.1L214.1 70c1.4 2.1.8 3.8-1.3 3.8H205c-2.1 0-5-1.7-6.4-3.8L178 39.7c-.1-.1-.2-.2-.2-.4v19.3zm-29.9 6.2v5.8c0 1.6-1.3 2.8-2.8 2.8h-34.9c-1.2 0-2.2-.4-3.1-1.1-.8-.7-1.2-1.9-1.2-3.5V6.3c0-1.6.4-2.8 1.2-3.5.8-.7 1.8-1.1 3.1-1.1h34.9c1.6 0 2.8 1.3 2.8 2.8v5.8c0 1.6-1.3 2.8-2.8 2.8h-24.7v17.5h24.8c1.5 0 2.7 1.2 2.7 2.7V39c0 1.5-1.2 2.7-2.7 2.7h-24.8V62h24.7c1.5 0 2.8 1.2 2.8 2.8m196 0v5.8c0 1.6-1.3 2.8-2.8 2.8H306c-1.2 0-2.2-.4-3-1.1-.8-.7-1.3-1.9-1.3-3.5V6.3c0-1.6.4-2.8 1.3-3.5.8-.7 1.8-1.1 3-1.1h35.1c1.6 0 2.8 1.3 2.8 2.8v5.8c0 1.6-1.3 2.8-2.8 2.8h-24.9v17.5h25c1.5 0 2.7 1.2 2.7 2.7V39c0 1.5-1.2 2.7-2.7 2.7h-25V62h24.9c1.5 0 2.8 1.2 2.8 2.8m-53.5 6.1l-.4-1.3v-.1c-.1-.8-.4-1.8-.8-3.2L267.3 4.4c-.2-.7-.5-1.2-.8-1.7-.3-.4-.8-.7-1.5-.9-.7-.2-1.7-.3-3-.4-1.3-.1-3-.1-5.2-.1-1.9 0-3.4 0-4.5.1s-2 .2-2.7.4c-.6.2-1.1.5-1.4.9-.3.4-.6.9-.8 1.5l-22.1 63.6c-.3.9-.1.4 0 .3l-.9 2.8c-.5 1.6.3 2.8 1.9 2.8h8.5c1.5 0 3.5-1.3 4-2.8l.6-1.9c.1-.2.1-.4.2-.6l.2-.8.9-2.6c.1-.2.1-.4.1-.5l2.4-7.5h27l2.5 7.3c0 .2.1.5.1.7l2 5.8c.5 1.6 2.2 2.8 3.8 2.8h9.9c1.5.1 2.4-1.1 1.9-2.7m-43.9-25.1l10-30.5 10.1 30.5h-20.1zM92.3 15.6c-.8-2.4-2-4.4-3.6-6.2-1.5-1.8-3.4-3.2-5.6-4.3-2.2-1.1-4.4-1.9-6.5-2.4-2.2-.4-4-.7-5.5-.8-1.5-.1-3.2-.2-4.9-.2H49.3c-1.5 0-2.7.4-3.6 1.3-.9.9-1.4 2.2-1.4 3.9v63.2c0 2 1.6 3.6 3.6 3.6h7.3c2 0 3.6-1.6 3.6-3.6V48.5h6c4.7 0 8.9-.6 12.4-1.7s6.4-2.7 8.8-4.9c2.4-2.1 4.3-4.7 5.5-7.8 1.3-3.1 1.9-6.7 1.9-10.7.1-2.8-.3-5.4-1.1-7.8M77.5 29.7c-.5 1.6-1.3 2.9-2.3 4-1 1.1-2.3 2-3.9 2.6-1.6.6-3.5.9-5.9.9h-6.6V13H65c1.5 0 3 .1 4.4.3 1.4.2 2.8.7 4.1 1.5 1.3.8 2.4 2 3.3 3.6.9 1.6 1.3 3.7 1.3 6.2.2 1.8-.1 3.5-.6 5.1" fill="#171844" clip-path="url(#b)"/></svg>