<svg width="40" height="40" fill="none" xmlns="http://www.w3.org/2000/svg"><path d="M18.444 12.444c.223 0 .223 0 0 0 .223-.888.445-1.333.445-2V10c.222-1.111.222-2 0-2.222v-.222l-.222-.223s0 .223-.223.223c-.444 1.333-.444 2.888 0 4.888zm-6.666 15.334c-.445.222-.89.444-1.111.666C9.11 29.778 8 31.334 7.777 32c1.334-.222 2.667-1.556 4-4.222.223 0 .223 0 0 0 .223 0 0 0 0 0zm20.444-3.334c-.222-.222-1.11-.888-4.222-.888h-.444v.222c1.555.666 3.11 1.11 4.222 1.11h.666v-.221s-.222 0-.222-.223zM35.556 0H4.444C2 0 0 2 0 4.444v31.112C0 38 2 40 4.444 40h31.112C38 40 40 38 40 35.556V4.444C40 2 38 0 35.556 0zM33.11 26.222c-.444.222-1.111.445-2 .445-1.778 0-4.444-.445-6.667-1.556-3.777.445-6.666.889-8.888 1.778-.223 0-.223 0-.445.222C12.444 31.778 10.222 34 8.444 34c-.444 0-.666 0-.888-.222l-1.112-.667v-.222c-.222-.445-.222-.667-.222-1.111.222-1.111 1.556-3.111 4.222-4.667.445-.222 1.112-.667 2-1.111.667-1.111 1.334-2.445 2.223-4 1.11-2.222 1.777-4.444 2.444-6.444-.889-2.667-1.333-4.223-.444-7.334.222-.889.889-1.778 1.777-1.778h.445c.444 0 .889.223 1.333.445 1.556 1.555.89 5.111 0 8v.222c.89 2.445 2.222 4.445 3.556 5.778.666.444 1.11.889 2 1.333 1.11 0 2-.222 2.889-.222 2.666 0 4.444.444 5.11 1.556.223.444.223.888.223 1.333-.222.222-.444.889-.889 1.333zm-14.444-8.666c-.445 1.555-1.334 3.333-2.223 5.333-.444.889-.888 1.555-1.333 2.444h.445c2.888-1.11 5.555-1.777 7.333-2-.445-.222-.667-.444-.889-.666-1.111-1.334-2.444-3.111-3.333-5.111z" fill="#1E1C24"/></svg>